<?xml version="1.0" standalone="no"?>
<!DOCTYPE svg PUBLIC "-//W3C//DTD SVG 20010904//EN"
 "http://www.w3.org/TR/2001/REC-SVG-20010904/DTD/svg10.dtd">
<svg version="1.0" xmlns="http://www.w3.org/2000/svg"
 width="96.000000pt" height="96.000000pt" viewBox="0 0 96.000000 96.000000"
 preserveAspectRatio="xMidYMid meet">
<metadata>
Created by potrace 1.14, written by Peter Selinger 2001-2017
</metadata>
<g transform="translate(0.000000,96.000000) scale(0.100000,-0.100000)"
fill="#000000" stroke="none">
<path d="M267 849 c-97 -55 -184 -110 -192 -122 -11 -17 -15 -70 -17 -239 -3
-206 -2 -218 18 -244 11 -16 97 -72 194 -128 132 -76 183 -100 210 -100 42 0
362 179 397 222 22 26 23 34 23 240 0 165 -3 219 -14 241 -20 39 -359 231
-407 231 -25 0 -83 -28 -212 -101z m383 -143 c0 -2 -55 -100 -123 -218 l-123
-213 -106 -3 -107 -3 -24 43 c-37 64 -51 116 -51 188 0 60 26 164 43 174 4 3
30 -37 58 -87 82 -144 74 -140 113 -71 18 32 51 89 72 127 l39 67 104 0 c58 0
105 -2 105 -4z m167 -82 c35 -101 22 -228 -32 -314 l-25 -40 -100 0 -100 0 31
55 31 55 -40 0 -41 0 44 78 c43 76 44 77 87 80 42 3 44 5 78 67 19 36 39 64
44 62 5 -2 16 -21 23 -43z"/>
</g>
</svg>
